<?xml version="1.0" encoding="UTF-8"?>
<svg width="20px" height="20px" viewBox="0 0 20 20" version="1.1" xmlns="http://www.w3.org/2000/svg" xmlns:xlink="http://www.w3.org/1999/xlink">
    <title>amount</title>
    <defs>
        <rect id="path-1" x="0" y="0" width="20" height="20"></rect>
    </defs>
    <g id="设计规范" stroke="none" stroke-width="1" fill="none" fill-rule="evenodd">
        <g id="PC端" transform="translate(-550.000000, -2727.000000)">
            <g id="amount" transform="translate(550.000000, 2727.000000)">
                <mask id="mask-2" fill="white">
                    <use xlink:href="#path-1"></use>
                </mask>
                <g id="矩形"></g>
                <path d="M3.94352985,-0.545911962 C4.21186909,-0.670721124 4.52170879,-0.670262134 4.78967708,-0.544658496 L4.78967708,-0.544658496 L12.4617461,3.05143791 C12.6731488,3.15052779 12.8432165,3.32046425 12.9424696,3.53179034 L12.9424696,3.53179034 L16.546154,11.2046251 C16.6635463,11.4545724 16.6685138,11.7284398 16.5816465,11.9691685 C16.4947792,12.2098972 16.3160769,12.4174871 16.0661296,12.5348794 C15.7972459,12.6611654 15.4861341,12.6613691 15.2170852,12.5354352 L15.2170852,12.5354352 L7.50336826,8.92486953 C7.29058287,8.8252709 7.11965909,8.65393202 7.0205769,8.44090567 L7.0205769,8.44090567 L3.45854036,0.782540217 C3.34208246,0.532156172 3.33813781,0.258272075 3.42590365,0.0178695151 C3.51366948,-0.222533045 3.6931458,-0.429454067 3.94352985,-0.545911962 Z" id="矩形" stroke-opacity="0.40322129" stroke="#11142D" stroke-width="2" mask="url(#mask-2)" transform="translate(10.016720, 6.000000) rotate(-45.000000) translate(-10.016720, -6.000000) "></path>
                <path d="M16.1221631,17.004236 L8.40844614,13.3936704 C7.98287537,13.1944731 7.64102781,12.8517953 7.44286343,12.4257427 L3.88082688,4.7673772" id="路径" stroke-opacity="0.40322129" stroke="#11142D" stroke-width="2" stroke-linecap="round" mask="url(#mask-2)" transform="translate(10.001495, 10.885807) rotate(-45.000000) translate(-10.001495, -10.885807) "></path>
                <path d="M16.1221631,21.004236 L8.40844614,17.3936704 C7.98287537,17.1944731 7.64102781,16.8517953 7.44286343,16.4257427 L3.88082688,8.7673772" id="路径备份" stroke-opacity="0.40322129" stroke="#11142D" stroke-width="2" stroke-linecap="round" mask="url(#mask-2)" transform="translate(10.001495, 14.885807) rotate(-45.000000) translate(-10.001495, -14.885807) "></path>
            </g>
        </g>
    </g>
</svg>