<svg width="23.976318" height="19.788086" viewBox="0 0 23.9763 19.7881" fill="none" xmlns="http://www.w3.org/2000/svg" xmlns:xlink="http://www.w3.org/1999/xlink">
	<desc>
			Created with Pixso.
	</desc>
	<path d="M7.39771 12.3818C7.66748 12.6562 8.09546 12.6602 8.36987 12.3904L11.9729 8.8501L15.6084 12.3923C15.884 12.6609 16.3118 12.6555 16.5806 12.3796C16.8491 12.104 16.8438 11.6763 16.5679 11.4075L12.4509 7.39575Q12.4031 7.34915 12.3472 7.31263Q12.2913 7.2761 12.2294 7.25101Q12.1675 7.22592 12.102 7.21321Q12.0364 7.20049 11.9696 7.20063Q11.9029 7.20076 11.8374 7.21374Q11.7719 7.22673 11.7101 7.25207Q11.6483 7.27741 11.5926 7.31416Q11.5369 7.35091 11.4893 7.39771L7.40625 11.4094L7.89209 11.9038L7.40625 11.4094C7.13159 11.6794 7.12793 12.1072 7.39771 12.3818Z" fill-rule="evenodd" fill="#11142D"/>
	<defs/>
</svg>
