<svg width="23.976318" height="19.788086" viewBox="0 0 23.9763 19.7881" fill="none" xmlns="http://www.w3.org/2000/svg" xmlns:xlink="http://www.w3.org/1999/xlink">
	<desc>
			Created with Pixso.
	</desc>
	<path d="M16.5786 7.40625C16.3088 7.13184 15.8809 7.12793 15.6064 7.39771L12.0034 10.938L8.36792 7.39575C8.09229 7.1272 7.66455 7.13257 7.39575 7.40845C7.1272 7.68408 7.13257 8.11182 7.40845 8.38062L11.5254 12.3923Q11.5732 12.4389 11.6291 12.4755Q11.685 12.512 11.7469 12.5371Q11.8088 12.5622 11.8744 12.5749Q11.9399 12.5876 12.0067 12.5875Q12.0735 12.5873 12.1389 12.5743Q12.2044 12.5614 12.2662 12.536Q12.328 12.5107 12.3837 12.4739Q12.4394 12.4372 12.4871 12.3904L16.5701 8.37866L16.0842 7.88428L16.5701 8.37866C16.8447 8.10864 16.8484 7.68091 16.5786 7.40625Z" fill-rule="evenodd" fill="#11142D"/>
	<defs/>
</svg>
