<svg width="67.894531" height="55.895020" viewBox="0 0 67.8945 55.895" fill="none" xmlns="http://www.w3.org/2000/svg" xmlns:xlink="http://www.w3.org/1999/xlink">
	<path d="M22.9473 31.4028L22.9473 19.9475Q22.9473 16.2473 25.3374 13.6179Q27.7651 10.9475 31.2202 10.9475L36.6743 10.9475Q40.1294 10.9475 42.5571 13.6179Q44.9473 16.2473 44.9473 19.9475L44.9473 31.4028C44.9473 31.9629 44.5073 32.4028 43.9473 32.4028C43.3872 32.4028 42.9473 31.9629 42.9473 31.4028L42.9473 19.9475Q42.9473 17.0205 41.0771 14.9634Q39.2446 12.9475 36.6743 12.9475L31.2202 12.9475Q28.6499 12.9475 26.8174 14.9634Q24.9473 17.0205 24.9473 19.9475L24.9473 31.4028C24.9473 31.9629 24.5073 32.4028 23.9473 32.4028C23.3872 32.4028 22.9473 31.9629 22.9473 31.4028Z" fill-rule="evenodd" fill="#FD5E00"/>
	<rect x="23.947266" y="23.947510" rx="2.000000" width="6.000000" height="8.000000" stroke="#FD5E00" stroke-width="2.000000"/>
	<rect x="37.947266" y="23.947510" rx="2.000000" width="6.000000" height="8.000000" stroke="#FD5E00" stroke-width="2.000000"/>
	<defs/>
</svg>
