<svg width="67.895020" height="55.894775" viewBox="0 0 67.895 55.8948" fill="none" xmlns="http://www.w3.org/2000/svg" xmlns:xlink="http://www.w3.org/1999/xlink">
	<path d="M22.9475 31.4027L22.9475 19.9474Q22.9475 16.2471 25.3376 13.6179Q27.7654 10.9474 31.2202 10.9474L36.6748 10.9474Q40.1296 10.9474 42.5574 13.6179Q44.9475 16.2471 44.9475 19.9474L44.9475 31.4027C44.9475 31.9628 44.5076 32.4027 43.9475 32.4027C43.3875 32.4027 42.9475 31.9628 42.9475 31.4027L42.9475 19.9474Q42.9475 17.0203 41.0774 14.9633Q39.2449 12.9474 36.6748 12.9474L31.2202 12.9474Q28.6501 12.9474 26.8176 14.9633Q24.9475 17.0203 24.9475 19.9474L24.9475 31.4027C24.9475 31.9628 24.5076 32.4027 23.9475 32.4027C23.3875 32.4027 22.9475 31.9628 22.9475 31.4027Z" fill-rule="evenodd" fill="#11142D"/>
	<rect x="23.947510" y="23.947388" rx="2.000000" width="6.000000" height="8.000000" stroke="#11142D" stroke-width="2.000000"/>
	<rect x="37.947510" y="23.947388" rx="2.000000" width="6.000000" height="8.000000" stroke="#11142D" stroke-width="2.000000"/>
	<defs/>
</svg>
