<svg width="54.947266" height="54.947266" viewBox="0 0 54.9473 54.9473" fill="none" xmlns="http://www.w3.org/2000/svg" xmlns:xlink="http://www.w3.org/1999/xlink">
	<desc>
			Created with Pixso.
	</desc>
	<path d="M17.0518 25.1309C17.0493 25.6909 17.4873 26.1328 18.0474 26.1353L33.4377 26.2029Q36.4421 26.2029 36.4421 30.2029Q36.4421 34.2029 33.4421 34.2029L24.0776 34.2029C23.5176 34.2029 23.0776 34.6431 23.0776 35.2029C23.0776 35.7629 23.5176 36.2029 24.0776 36.2029L33.4421 36.2029Q35.5796 36.2029 37.0515 34.3633Q38.4421 32.6248 38.4421 30.2029Q38.4421 27.781 37.0515 26.0427Q35.5796 24.2029 33.4465 24.2029L18.0562 24.1353C17.4961 24.1328 17.0542 24.5708 17.0518 25.1309Z" fill-rule="evenodd" fill="#11142D"/>
	<path d="M22.4185 31.4993L16.7617 25.8423Q16.6921 25.7726 16.6373 25.6908Q16.5826 25.6089 16.5449 25.5179Q16.5072 25.4269 16.488 25.3303Q16.4688 25.2337 16.4688 25.1353Q16.4688 25.0368 16.488 24.9402Q16.5072 24.8436 16.5449 24.7526Q16.5826 24.6616 16.6373 24.5797Q16.6921 24.4979 16.7617 24.4282L22.4185 18.7712C22.8145 18.3752 23.4368 18.3752 23.8328 18.7712C24.2288 19.1672 24.2288 19.7896 23.8328 20.1855L18.8831 25.1353L23.8328 30.085C24.2288 30.481 24.2288 31.1033 23.8328 31.4993C23.4368 31.8953 22.8145 31.8953 22.4185 31.4993Z" fill-rule="evenodd" fill="#11142D"/>
	<defs/>
</svg>
