<svg width="42.947266" height="41.947266" viewBox="0 0 42.9473 41.9473" fill="none" xmlns="http://www.w3.org/2000/svg" xmlns:xlink="http://www.w3.org/1999/xlink">
	<desc>
			Created with Pixso.
	</desc>
	<path d="M29.4736 18.4736L29.4736 21.4736Q29.4736 22.9636 31.0205 24.6675Q32.4736 26.2676 32.4736 27.4736Q32.4736 31.4736 21.4736 31.4736Q10.4736 31.4736 10.4736 27.4736Q10.4736 26.2676 11.9268 24.6675Q13.4736 22.9636 13.4736 21.4736L13.4736 18.4736Q13.4736 15.1599 15.8169 12.8169Q18.1602 10.4736 21.4736 10.4736Q24.7871 10.4736 27.1304 12.8169Q29.4736 15.1599 29.4736 18.4736ZM27.4736 18.4736Q27.4736 15.9883 25.7163 14.231Q23.959 12.4736 21.4736 12.4736Q18.9883 12.4736 17.231 14.231Q15.4736 15.9883 15.4736 18.4736L15.4736 21.4736Q15.4736 23.7361 13.4072 26.012Q12.4736 27.0403 12.4736 27.4736Q12.4736 28.0347 14.4814 28.6558Q17.1255 29.4736 21.4736 29.4736Q25.8218 29.4736 28.4658 28.6558Q30.4736 28.0347 30.4736 27.4736Q30.4736 27.0403 29.54 26.012Q27.4736 23.7361 27.4736 21.4736L27.4736 18.4736Z" fill-rule="evenodd" fill="#11142D"/>
	<path d="M21.4736 32.4736C20.4629 32.4736 19.5127 32.4395 18.6187 32.3735C19.0098 33.6213 20.166 34.4705 21.4736 34.4705C22.7812 34.4705 23.9375 33.6213 24.3286 32.3735C23.4346 32.4395 22.4849 32.4736 21.4736 32.4736Z" fill="#12132D"/>
	<defs/>
</svg>
