<svg width="65.895020" height="65.895020" viewBox="0 0 65.895 65.895" fill="none" xmlns="http://www.w3.org/2000/svg" xmlns:xlink="http://www.w3.org/1999/xlink">
	<desc>
			Created with Pixso.
	</desc>
	<rect x="23.947510" y="23.947510" rx="4.000000" width="18.000000" height="18.000000" stroke="#11142D" stroke-width="2.000000"/>
	<rect x="22.947510" y="31.947510" rx="1.000000" width="20.000000" height="2.000000" fill="#11142D"/>
	<rect x="33.947510" y="22.947510" rx="1.000000" width="20.000000" height="2.000000" transform="rotate(90 33.947510 22.947510)" fill="#11142D"/>
	<rect x="25.077637" y="27.763672" rx="1.000000" width="6.000000" height="2.000000" fill="#11142D"/>
	<rect x="26.621094" y="34.917725" rx="1.000000" width="6.000000" height="2.000000" transform="rotate(45 26.621094 34.917725)" fill="#11142D"/>
	<rect x="34.496094" y="27.763672" rx="1.000000" width="6.000000" height="2.000000" fill="#11142D"/>
	<rect x="34.496094" y="36.558838" rx="1.000000" width="6.000000" height="2.000000" fill="#11142D"/>
	<path d="M37.3848 36.4131C37.937 36.4131 38.3848 35.9653 38.3848 35.4131C38.3848 34.8608 37.937 34.4131 37.3848 34.4131C36.8325 34.4131 36.3848 34.8608 36.3848 35.4131C36.3848 35.9653 36.8325 36.4131 37.3848 36.4131Z" fill="#11142D"/>
	<path d="M37.5188 40.7441C38.071 40.7441 38.5188 40.2964 38.5188 39.7441C38.5188 39.1919 38.071 38.7441 37.5188 38.7441C36.9666 38.7441 36.5188 39.1919 36.5188 39.7441C36.5188 40.2964 36.9666 40.7441 37.5188 40.7441Z" fill="#11142D"/>
	<rect x="29.183105" y="25.703857" rx="1.000000" width="6.000000" height="2.000000" transform="rotate(90 29.183105 25.703857)" fill="#11142D"/>
	<rect x="30.980713" y="36.364258" rx="1.000000" width="6.000000" height="2.000000" transform="rotate(135 30.980713 36.364258)" fill="#11142D"/>
	<defs/>
</svg>
