<svg width="49.645020" height="46.012695" viewBox="0 0 49.645 46.0127" fill="none" xmlns="http://www.w3.org/2000/svg" xmlns:xlink="http://www.w3.org/1999/xlink">
	<desc>
			Created with Pixso.
	</desc>
	<path d="M33.3362 16.0117C32.665 15.5068 31.7407 15.6375 31.2358 16.3088L23.5347 26.5476L18.2498 21.4688L17.2104 22.5503L18.2498 21.4688C17.644 20.8867 16.7109 20.9053 16.1289 21.511C15.5469 22.1165 15.5654 23.0498 16.1711 23.6318L16.1711 23.6318L22.6765 29.8838Q22.7296 29.9348 22.7875 29.9805Q22.8454 30.0261 22.9075 30.0658Q22.9696 30.1055 23.0352 30.1389Q23.1009 30.1723 23.1695 30.1992Q23.2382 30.226 23.3091 30.246Q23.38 30.266 23.4526 30.2789Q23.5251 30.2919 23.5986 30.2976Q23.6721 30.3034 23.7458 30.3019Q23.8194 30.3004 23.8926 30.2918Q23.9658 30.2831 24.0378 30.2673Q24.1098 30.2515 24.1799 30.2287Q24.2499 30.2059 24.3175 30.1763Q24.385 30.1468 24.4493 30.1108Q24.5136 30.0747 24.574 30.0326Q24.6345 29.9904 24.6905 29.9426Q24.7465 29.8947 24.7976 29.8416Q24.8604 29.7761 24.9148 29.7039L33.6333 18.1121C34.1384 17.4407 34.0076 16.5166 33.3362 16.0117Z" fill-rule="evenodd" fill="#FFFFFF"/>
	<defs/>
</svg>
