<svg width="44.947266" height="44.947266" viewBox="0 0 44.9473 44.9473" fill="none" xmlns="http://www.w3.org/2000/svg" xmlns:xlink="http://www.w3.org/1999/xlink">
	<desc>
			Created with Pixso.
	</desc>
	<path d="M31.4736 20.542L31.4736 30.2236Q31.4736 33.4736 28.2236 33.4736L14.7236 33.4736Q11.4736 33.4736 11.4736 30.2236L11.4736 16.7236Q11.4736 13.4736 14.7236 13.4736L26.8784 13.4736L26.8784 15.4736L14.7236 15.4736Q13.4736 15.4736 13.4736 16.7236L13.4736 30.2236Q13.4736 31.4736 14.7236 31.4736L28.2236 31.4736Q29.4736 31.4736 29.4736 30.2236L29.4736 20.542L31.4736 20.542Z" fill-rule="evenodd" fill="#11142D"/>
	<path d="M15.3484 29.7849C15.7451 30.1799 16.3674 30.1785 16.7627 29.7817L32.6108 13.865C33.0061 13.4683 33.0046 12.8459 32.6079 12.4509C32.2109 12.0557 31.5889 12.0571 31.1936 12.4539L15.3452 28.3706C14.9502 28.7673 14.9517 29.3896 15.3484 29.7849Z" fill-rule="evenodd" fill="#11142D"/>
	<defs/>
</svg>
