<svg width="59.895020" height="61.895020" viewBox="0 0 59.895 61.895" fill="none" xmlns="http://www.w3.org/2000/svg" xmlns:xlink="http://www.w3.org/1999/xlink">
	<desc>
			Created with Pixso.
	</desc>
	<path d="M35.9475 22.9475L23.9475 22.9475C23.3953 22.9475 22.9475 23.3953 22.9475 23.9475L22.9475 36.7732C22.9475 37.6277 23.9497 38.0886 24.5984 37.5325L29.2966 33.5054C29.6711 33.1843 30.2239 33.1843 30.5984 33.5054L35.2966 37.5325C35.9453 38.0886 36.9475 37.6277 36.9475 36.7732L36.9475 23.9475C36.9475 23.3953 36.4998 22.9475 35.9475 22.9475ZM24.9475 24.9475L34.9475 24.9475L34.9475 34.5991L31.8999 31.9868Q31.0574 31.2646 29.9475 31.2646Q28.8376 31.2646 27.9951 31.9868L24.9475 34.5991L24.9475 24.9475Z" fill-rule="evenodd" fill="#11142D"/>
	<rect x="22.947510" y="18.947510" rx="1.000000" width="14.000000" height="2.000000" fill="#11142D"/>
	<defs/>
</svg>
