<svg width="77.894531" height="77.895020" viewBox="0 0 77.8945 77.895" fill="none" xmlns="http://www.w3.org/2000/svg" xmlns:xlink="http://www.w3.org/1999/xlink">
	<desc>
			Created with Pixso.
	</desc>
	<circle cx="38.947266" cy="38.947510" r="15.000000" stroke="#11142D" stroke-width="2.000000"/>
	<rect x="22.947266" y="37.947510" rx="1.000000" width="32.000000" height="2.000000" fill="#11142D"/>
	<rect x="39.947266" y="22.947510" rx="1.000000" width="32.000000" height="2.000000" transform="rotate(90 39.947266 22.947510)" fill="#11142D"/>
	<ellipse cx="38.947266" cy="38.947510" rx="7.000000" ry="15.000000" stroke="#11142D" stroke-width="2.000000"/>
	<path d="M50.3735 48.9661Q46.1274 45.9475 38.9473 45.9475Q31.8301 45.9475 27.5796 48.9243L27.0059 48.1052L27.5796 48.9243C27.1206 49.2456 26.5078 49.1377 26.1865 48.679C25.8657 48.2202 25.9736 47.6074 26.4321 47.2861L26.4321 47.2861Q31.1992 43.9475 38.9473 43.9475Q46.7656 43.9475 51.5327 47.3359L50.957 48.1458L51.5327 47.3359C51.9888 47.6604 52.0928 48.2739 51.7681 48.7305C51.4438 49.1868 50.8301 49.2905 50.3735 48.9661Z" fill-rule="evenodd" fill="#11142D"/>
	<path d="M27.5854 29.1326Q31.8315 32.1511 39.0117 32.1511Q46.1289 32.1511 50.3794 29.1743L50.9531 29.9934L50.3794 29.1743C50.8384 28.853 51.4512 28.9609 51.7725 29.4197C52.0933 29.8784 51.9854 30.4912 51.5269 30.8125L51.5269 30.8125Q46.7598 34.1511 39.0117 34.1511Q31.1934 34.1511 26.4263 30.7627L27.002 29.9529L26.4263 30.7627C25.9702 30.4382 25.8662 29.8247 26.1909 29.3682C26.5151 28.9119 27.1289 28.8081 27.5854 29.1326Z" fill-rule="evenodd" fill="#11142D"/>
	<defs/>
</svg>
