<svg width="67.894531" height="67.423340" viewBox="0 0 67.8945 67.4233" fill="none" xmlns="http://www.w3.org/2000/svg" xmlns:xlink="http://www.w3.org/1999/xlink">
	<desc>
			Created with Pixso.
	</desc>
	<path d="M35.8882 43.8289L32.0059 43.8289L32.0059 36.7112C32.0059 35.6392 32.875 34.77 33.9473 34.77C35.019 34.77 35.8882 35.6392 35.8882 36.7112L35.8882 43.8289Z" fill-rule="evenodd" fill="#FD5E00"/>
	<mask id="path-1-inside-1" fill="white">
		<path d="M44.9473 30.4961L44.9473 41.8877C44.9473 43.3171 43.7886 44.4758 42.3594 44.4758L25.5352 44.4758C24.106 44.4758 22.9473 43.3171 22.9473 41.8877L22.9473 30.4961L22.9531 30.4961L33.1953 23.1882C33.6455 22.8672 34.249 22.8672 34.6992 23.1882L44.9414 30.4961L44.9473 30.4961Z" fill-opacity="0.000000"/>
	</mask>
	<path d="M44.9473 30.4961L44.9473 41.8877C44.9473 43.3171 43.7886 44.4758 42.3594 44.4758L25.5352 44.4758C24.106 44.4758 22.9473 43.3171 22.9473 41.8877L22.9473 30.4961L22.9531 30.4961L33.1953 23.1882C33.6455 22.8672 34.249 22.8672 34.6992 23.1882L44.9414 30.4961L44.9473 30.4961Z" stroke="#FD5E00" stroke-width="2.000000"/>
	<defs/>
</svg>
