<svg width="67.895020" height="67.423096" viewBox="0 0 67.895 67.4231" fill="none" xmlns="http://www.w3.org/2000/svg" xmlns:xlink="http://www.w3.org/1999/xlink">
	<desc>
			Created with Pixso.
	</desc>
	<path d="M35.8887 43.8286L32.0063 43.8286L32.0063 36.7109C32.0063 35.6389 32.8755 34.7698 33.9475 34.7698C35.0195 34.7698 35.8887 35.6389 35.8887 36.7109L35.8887 43.8286Z" fill-rule="evenodd" fill="#11142D"/>
	<mask id="path-1-inside-1" fill="white">
		<path d="M44.9475 30.496L44.9475 41.8875C44.9475 43.3169 43.7888 44.4757 42.3594 44.4757L25.5356 44.4757C24.1062 44.4757 22.9475 43.3169 22.9475 41.8875L22.9475 30.496L22.9536 30.496L33.1958 23.188C33.6455 22.8672 34.2495 22.8672 34.6992 23.188L44.9414 30.496L44.9475 30.496Z" fill-opacity="0.000000"/>
	</mask>
	<path d="M44.9475 30.496L44.9475 41.8875C44.9475 43.3169 43.7888 44.4757 42.3594 44.4757L25.5356 44.4757C24.1062 44.4757 22.9475 43.3169 22.9475 41.8875L22.9475 30.496L22.9536 30.496L33.1958 23.188C33.6455 22.8672 34.2495 22.8672 34.6992 23.188L44.9414 30.496L44.9475 30.496Z" stroke="#11142D" stroke-width="2.000000"/>
	<defs/>
</svg>
