<svg width="46.677734" height="44.744385" viewBox="0 0 46.6777 44.7444" fill="none" xmlns="http://www.w3.org/2000/svg" xmlns:xlink="http://www.w3.org/1999/xlink">
	<desc>
			Created with Pixso.
	</desc>
	<path d="M22.562 16.9407L23.3477 17.7263L24.1157 16.9583C25.668 15.406 28.1848 15.406 29.7371 16.9583C31.2896 18.5107 31.2896 21.0276 29.7371 22.5798L23.3491 28.968L23.3301 28.949L23.3286 28.9502L16.9407 22.5623C15.3882 21.0098 15.3882 18.4929 16.9407 16.9407C18.4929 15.3882 21.0098 15.3882 22.562 16.9407ZM23.3301 27.0044L23.3491 27.0234L28.7649 21.6077Q29.5264 20.8459 29.5264 19.769Q29.5264 18.6921 28.7649 17.9307Q28.0034 17.1692 26.9265 17.1692Q25.8494 17.1692 25.0879 17.9307L23.3477 19.6707L21.5898 17.9128Q20.8284 17.1514 19.7515 17.1514Q18.6743 17.1514 17.9128 17.9128Q17.1514 18.6743 17.1514 19.7515Q17.1514 20.8284 17.9128 21.5898L23.3286 27.0056L23.3301 27.0044Z" fill-rule="evenodd" fill="#11142D"/>
	<defs/>
</svg>
