<svg width="67.894531" height="65.082764" viewBox="0 0 67.8945 65.0828" fill="none" xmlns="http://www.w3.org/2000/svg" xmlns:xlink="http://www.w3.org/1999/xlink">
	<desc>
			Created with Pixso.
	</desc>
	<path d="M32.8174 24.6409L33.96 25.7837L35.0771 24.6667C37.335 22.4087 40.9961 22.4087 43.2539 24.6667C45.5117 26.9248 45.5117 30.5854 43.2539 32.8435L33.9619 42.1353L33.9346 42.1077L33.9326 42.1096L24.6406 32.8179C22.3828 30.5598 22.3828 26.8989 24.6406 24.6409C26.8984 22.3831 30.5596 22.3831 32.8174 24.6409ZM33.9346 39.2795L33.9619 39.3069L41.8394 31.4292Q42.9473 30.3215 42.9473 28.7551Q42.9473 27.1887 41.8394 26.0811Q40.7319 24.9734 39.1655 24.9734Q37.5991 24.9734 36.4912 26.0811L33.96 28.6121L31.4033 26.0552Q30.2954 24.9475 28.729 24.9475Q27.1626 24.9475 26.0552 26.0552Q24.9473 27.1628 24.9473 28.7292Q24.9473 30.2959 26.0552 31.4036L33.9331 39.2815L33.9346 39.2795Z" fill-rule="evenodd" fill="#11142D"/>
	<defs/>
</svg>
