<?xml version="1.0" encoding="UTF-8"?>
<svg width="40px" height="40px" viewBox="0 0 40 40" version="1.1" xmlns="http://www.w3.org/2000/svg" xmlns:xlink="http://www.w3.org/1999/xlink">
    <title>编组 13</title>
    <defs>
        <path d="M21.6250521,23.1446176 L20.131761,24.629576 C19.7803984,24.9789779 18.4627885,26.2018848 18.2871072,26.3765858 C16.4424534,27.8615441 14.7734809,26.3765858 14.7734809,26.3765858 C11.6112172,24.1928235 14.3342776,20.7861544 14.3342776,20.7861544 L16.793816,18.3403407 C14.8613216,16.1565785 12.5774645,17.5541863 12.5774645,17.5541863 L7.30702506,22.7952157 C5.72589323,24.9789779 7.57054702,26.7259877 7.57054702,26.7259877 L13.6315524,32.7531715 C16.3546127,34.2381298 17.5843819,32.4037695 17.5843819,32.4037695 L22.5034587,27.5994926 C23.9967499,25.0663284 21.6250521,23.1446176 21.6250521,23.1446176 Z M32.429453,13.2740123 L26.3684476,7.2468285 C23.6453873,5.76187017 22.4156181,7.59623045 22.4156181,7.59623045 L17.4965413,12.4005074 C15.9154094,14.8463211 18.2871072,16.7680319 18.2871072,16.7680319 L20.4831236,14.7589706 C23.1183433,11.5270025 25.2265191,13.6234143 25.2265191,13.6234142 C28.1252608,14.8463211 26.3684476,18.2529902 26.3684476,18.2529902 L23.206184,21.6596593 C25.1386784,23.8434215 27.4225355,22.4458137 27.4225355,22.4458137 L32.6929749,17.2047843 C34.2741068,15.0210221 32.429453,13.2740123 32.429453,13.2740123 L32.429453,13.2740123 Z M18.7263105,23.7560711 L23.9967499,18.2529902 C26.1927663,14.5842696 23.3818653,14.4969191 21.6250521,16.1565785 L16.3546127,21.3102573 C14.1585963,24.1928235 15.9154094,26.1145343 18.7263105,23.7560711 Z" id="path-1"></path>
    </defs>
    <g id="页面-1" stroke="none" stroke-width="1" fill="none" fill-rule="evenodd">
        <g id="PC端" transform="translate(-179.000000, -4365.000000)">
            <g id="编组-6" transform="translate(139.000000, 4335.000000)">
                <g id="编组-13" transform="translate(40.000000, 30.000000)">
                    <circle id="椭圆形" fill="#FCE6FF" cx="20" cy="20" r="20"></circle>
                    <mask id="mask-2" fill="white">
                        <use xlink:href="#path-1"></use>
                    </mask>
                    <use id="形状" fill="#FF3A6C" fill-rule="nonzero" xlink:href="#path-1"></use>
                    <path d="M7.23976465,-1.72371988 L24.9002003,0.518832914 C26.6227004,0.876393851 27.6517949,1.43745827 27.9910132,2.20108591 C30.5265657,7.92789735 28.4854977,17.017861 25.2803656,23.5845447 C23.143571,27.9627915 18.2151389,32.6224152 10.496206,37.5635601 L3.89485383,36.7253089 C0.12850451,36.2470513 -2.60381754,32.1705863 -2.20795827,27.6202693 L-0.296580657,5.64939576 C0.0992786082,1.09907885 3.47341533,-2.20197746 7.23976465,-1.72371988 Z" id="路径" fill="#FFFFFF" fill-rule="nonzero" opacity="0.301872617" mask="url(#mask-2)"></path>
                    <path d="M9.52380952,5.6166497 L27.2815238,5.6166497 C26.9992381,12.9663471 24.5672381,19.4102768 19.9832381,24.9470581 C15.4003809,30.4838394 9.62780954,33.9536476 2.66666667,35.356483 L2.66666667,13.9011104 C2.66666667,9.32572911 5.73671409,5.6166497 9.52380952,5.6166497 Z" id="路径" fill="#FFFFFF" fill-rule="nonzero" opacity="0.201692127" mask="url(#mask-2)"></path>
                    <path d="M12.2619619,5.74045637 L23.3333333,5.74045637 C22.8375764,11.1291274 20.6994248,16.0335286 16.9172793,20.4555297 C13.1351337,24.8775308 8.38386341,28.0280897 2.66666667,29.9034668 L2.66666667,16.9590637 C2.66666667,10.763198 6.96262666,5.74045637 12.2619619,5.74045637 Z" id="路径" fill="#FFFFFF" fill-rule="nonzero" opacity="0.102126349" mask="url(#mask-2)"></path>
                </g>
            </g>
        </g>
    </g>
</svg>