<svg width="61.895020" height="61.895020" viewBox="0 0 61.895 61.895" fill="none" xmlns="http://www.w3.org/2000/svg" xmlns:xlink="http://www.w3.org/1999/xlink">
	<desc>
			Created with Pixso.
	</desc>
	<path d="M28.5476 22.9475L24.5476 22.9475C23.6638 22.9475 22.9475 23.6638 22.9475 24.5476L22.9475 28.5476C22.9475 29.4312 23.6638 30.1475 24.5476 30.1475L28.5476 30.1475C29.4312 30.1475 30.1475 29.4312 30.1475 28.5476L30.1475 24.5476C30.1475 23.6638 29.4312 22.9475 28.5476 22.9475ZM24.9475 24.9475L28.1475 24.9475L28.1475 28.1475L24.9475 28.1475L24.9475 24.9475Z" fill-rule="evenodd" fill="#11142D"/>
	<path d="M28.5476 31.7476L24.5476 31.7476C23.6638 31.7476 22.9475 32.4639 22.9475 33.3477L22.9475 37.3477C22.9475 38.2312 23.6638 38.9475 24.5476 38.9475L28.5476 38.9475C29.4312 38.9475 30.1475 38.2312 30.1475 37.3477L30.1475 33.3477C30.1475 32.4639 29.4312 31.7476 28.5476 31.7476ZM24.9475 33.7476L28.1475 33.7476L28.1475 36.9475L24.9475 36.9475L24.9475 33.7476Z" fill-rule="evenodd" fill="#11142D"/>
	<path d="M33.3477 34.1475L37.3477 34.1475C38.2312 34.1475 38.9475 34.8638 38.9475 35.7476L38.9475 37.3474C38.9475 38.2312 38.2312 38.9475 37.3477 38.9475L33.3477 38.9475C32.4639 38.9475 31.7476 38.2312 31.7476 37.3474L31.7476 35.7476C31.7476 34.8638 32.4639 34.1475 33.3477 34.1475L33.3477 34.1475Z" fill="#11142D"/>
	<path d="M37.3477 22.9475L33.3477 22.9475C32.4639 22.9475 31.7476 23.6638 31.7476 24.5476L31.7476 30.9475C31.7476 31.8311 32.4639 32.5476 33.3477 32.5476L37.3477 32.5476C38.2312 32.5476 38.9475 31.8311 38.9475 30.9475L38.9475 24.5476C38.9475 23.6638 38.2312 22.9475 37.3477 22.9475ZM33.7476 24.9475L36.9475 24.9475L36.9475 30.5476L33.7476 30.5476L33.7476 24.9475Z" fill-rule="evenodd" fill="#11142D"/>
	<defs/>
</svg>
