<svg width="16.000244" height="14.000000" viewBox="0 0 16.0002 14" fill="none" xmlns="http://www.w3.org/2000/svg" xmlns:xlink="http://www.w3.org/1999/xlink">
	<desc>
			Created with Pixso.
	</desc>
	<path d="M14.8562 2.33301L5.71265 2.33301C5.09668 2.31152 4.60815 1.79565 4.60815 1.1665C4.60815 0.537354 5.09668 0.0214844 5.71265 0L14.8562 0C15.4875 0 15.9993 0.522217 15.9993 1.1665C15.9993 1.81079 15.4875 2.33301 14.8562 2.33301ZM2.28467 1.16724C2.28467 1.81128 1.77319 2.33325 1.14233 2.33325C0.511475 2.33325 0 1.81128 0 1.16724C0 0.523438 0.511475 0.00146484 1.14233 0.00146484C1.77319 0.00146484 2.28467 0.523438 2.28467 1.16724ZM5.71265 8.16504L14.8562 8.16504C15.4875 8.16504 15.9993 7.64282 15.9993 6.99854C15.9993 6.35425 15.4875 5.83203 14.8562 5.83203L5.71265 5.83203C5.09668 5.85352 4.60815 6.36938 4.60815 6.99854C4.60815 7.62769 5.09668 8.14355 5.71265 8.16504ZM2.28467 6.99927C2.28467 7.64331 1.77319 8.16528 1.14233 8.16528C0.511475 8.16528 0 7.64331 0 6.99927C0 6.35547 0.511475 5.8335 1.14233 5.8335C1.77319 5.8335 2.28467 6.35547 2.28467 6.99927ZM14.8564 13.9985L5.71289 13.9985C5.10278 13.9685 4.62329 13.4548 4.62329 12.8313C4.62329 12.2078 5.10278 11.6941 5.71289 11.6641L14.8564 11.6641C15.488 11.6641 16.0002 12.1868 16.0002 12.8313C16.0002 13.4758 15.488 13.9985 14.8564 13.9985ZM1.14258 11.6655C0.532471 11.6956 0.0529785 12.2092 0.0529785 12.8328C0.0529785 13.4563 0.532471 13.97 1.14258 14C1.77417 14 2.28613 13.4773 2.28613 12.8328C2.28613 12.1882 1.77417 11.6655 1.14258 11.6655Z" fill-rule="evenodd" clip-rule="evenodd" fill="#FD5E00" fill-opacity="1.000000"/>
	<defs/>
</svg>
