<svg width="63.895020" height="59.895020" viewBox="0 0 63.895 59.895" fill="none" xmlns="http://www.w3.org/2000/svg" xmlns:xlink="http://www.w3.org/1999/xlink">
	<desc>
			Created with Pixso.
	</desc>
	<rect x="23.947510" y="23.947510" rx="3.000000" width="16.000000" height="12.000000" stroke="#11142D" stroke-width="2.000000"/>
	<rect x="30.947510" y="26.947510" rx="1.000000" width="2.000000" height="6.000000" fill="#11142D"/>
	<mask id="path-1-inside-1" fill="white">
		<path d="M24.9475 24.9475L37.9475 24.9475C38.5076 24.9475 38.9475 24.5076 38.9475 23.9475C38.9475 23.3875 38.5076 22.9475 37.9475 22.9475L26.9475 22.9475L26.9475 22.4475C26.9475 21.5381 27.3999 20.7441 28.3049 20.0654C29.2986 19.3201 30.5129 18.9475 31.9475 18.9475C33.8413 18.9475 35.2781 19.5283 36.2578 20.6902L36.2578 20.6902C36.6189 21.1184 37.2388 21.1711 37.6667 20.8101C38.095 20.4492 38.1477 19.8291 37.7869 19.4011L37.0171 20.05L37.7869 19.4011C36.4077 17.7654 34.4612 16.9475 31.9475 16.9475C30.0684 16.9475 28.4543 17.4536 27.1047 18.4656C25.6667 19.5442 24.9475 20.8716 24.9475 22.4475L24.9475 24.9475Z" fill-opacity="0.000000"/>
	</mask>
	<path d="M24.9475 24.9475L37.9475 24.9475C38.5076 24.9475 38.9475 24.5076 38.9475 23.9475C38.9475 23.3875 38.5076 22.9475 37.9475 22.9475L26.9475 22.9475L26.9475 22.4475C26.9475 21.5381 27.3999 20.7441 28.3049 20.0654C29.2986 19.3201 30.5129 18.9475 31.9475 18.9475C33.8413 18.9475 35.2781 19.5283 36.2578 20.6902L36.2578 20.6902C36.6189 21.1184 37.2388 21.1711 37.6667 20.8101C38.095 20.4492 38.1477 19.8291 37.7869 19.4011L37.0171 20.05L37.7869 19.4011C36.4077 17.7654 34.4612 16.9475 31.9475 16.9475C30.0684 16.9475 28.4543 17.4536 27.1047 18.4656C25.6667 19.5442 24.9475 20.8716 24.9475 22.4475L24.9475 24.9475Z" stroke="#11142D" stroke-width="2.000000" stroke-linecap="round"/>
	<defs/>
</svg>
