<svg width="31.473633" height="31.473633" viewBox="0 0 31.4736 31.4736" fill="none" xmlns="http://www.w3.org/2000/svg" xmlns:xlink="http://www.w3.org/1999/xlink">
	<desc>
			Created with Pixso.
	</desc>
	<path d="M10.4346 15.1367C7.8457 15.1367 5.73682 13.0369 5.73682 10.4368C5.73682 7.83691 7.8457 5.73682 10.4346 5.73682C13.0332 5.73682 15.1421 7.83691 15.1421 10.4368L15.1421 14.0269C15.1421 14.6367 14.6423 15.1367 14.0327 15.1367L10.4346 15.1367ZM16.3315 14.0369L16.3315 10.4368C16.3315 7.83691 18.4304 5.73682 21.0293 5.73682C23.6179 5.73682 25.7368 7.84668 25.7368 10.4468C25.7368 13.0469 23.6379 15.1467 21.0393 15.1467L17.4409 15.1467C16.8313 15.1467 16.3315 14.6467 16.3315 14.0369ZM24.0269 10.4368C24.0269 8.78271 22.6816 7.43677 21.0283 7.43677C19.375 7.43677 18.0217 8.78271 18.0217 10.4368L18.0217 13.3477C18.0217 13.3962 18.0623 13.4368 18.1108 13.4368L21.0283 13.4368C22.6816 13.4368 24.0269 12.0908 24.0269 10.4368ZM10.4343 7.44189C12.0854 7.44189 13.429 8.78589 13.429 10.4377L13.429 13.3528C13.429 13.4014 13.3884 13.4419 13.3398 13.4419L10.4343 13.4419C8.78345 13.4419 7.43994 12.0977 7.43994 10.4458C7.43994 8.79395 8.78345 7.44189 10.4343 7.44189ZM5.73682 21.0269C5.73682 18.4268 7.83569 16.3267 10.4346 16.3267L14.0327 16.3267C14.6423 16.3267 15.1421 16.8267 15.1321 17.4268L15.1321 21.0269C15.1321 23.6267 13.0232 25.7268 10.4346 25.7268C7.8457 25.7268 5.73682 23.6267 5.73682 21.0269ZM16.3215 17.4368C16.3215 16.8267 16.8213 16.3267 17.4309 16.3267L21.0293 16.3267C23.6179 16.3267 25.7168 18.4368 25.7168 21.0369C25.7168 23.6367 23.6079 25.7368 21.0193 25.7368C18.4304 25.7368 16.3215 23.6367 16.3215 21.0369L16.3215 17.4368ZM21.0291 18.03C22.6802 18.03 24.0237 19.374 24.0237 21.0259C24.0237 22.6777 22.6802 24.022 21.0291 24.022C19.3782 24.022 18.0347 22.6777 18.0347 21.0259L18.0347 18.1108C18.0347 18.0623 18.0752 18.022 18.1238 18.022L21.0291 18.022L21.0291 18.03ZM13.3499 18.0317C13.3984 18.0317 13.439 18.0723 13.439 18.1208L13.439 21.0359C13.439 22.6877 12.0955 24.0317 10.4443 24.0317C8.79346 24.0317 7.44995 22.6877 7.44995 21.0359C7.44995 19.384 8.79346 18.0398 10.4443 18.0398L13.3499 18.0317Z" fill="#11142D" fill-opacity="1.000000"/>
	<defs/>
</svg>
