<svg width="57.894531" height="57.895020" viewBox="0 0 57.8945 57.895" fill="none" xmlns="http://www.w3.org/2000/svg" xmlns:xlink="http://www.w3.org/1999/xlink">
	<desc>
			Created with Pixso.
	</desc>
	<circle cx="28.947266" cy="28.947510" r="5.000000" stroke="#FD5E00" stroke-width="2.000000"/>
	<path d="M37.959 43.9402Q37.959 40.2122 35.3228 37.5762Q32.687 34.9402 28.959 34.9402Q25.231 34.9402 22.5952 37.5762Q19.959 40.2122 19.959 43.9402C19.959 44.5002 19.519 44.9402 18.959 44.9402C18.3989 44.9402 17.959 44.5002 17.959 43.9402Q17.959 39.3838 21.1807 36.1621Q24.4028 32.9402 28.959 32.9402Q33.5151 32.9402 36.7373 36.1621Q39.959 39.3838 39.959 43.9402C39.959 44.5002 39.519 44.9402 38.959 44.9402C38.3989 44.9402 37.959 44.5002 37.959 43.9402Z" fill-rule="evenodd" fill="#FD5E00"/>
	<rect x="31.947266" y="36.947510" rx="1.000000" width="2.000000" height="6.000000" transform="rotate(90 31.947266 36.947510)" fill="#FD5E00"/>
	<defs/>
</svg>
