<svg width="55.895020" height="55.895020" viewBox="0 0 55.895 55.895" fill="none" xmlns="http://www.w3.org/2000/svg" xmlns:xlink="http://www.w3.org/1999/xlink">
	<desc>
			Created with Pixso.
	</desc>
	<circle cx="27.947510" cy="27.947510" r="4.000000" stroke="#FFFFFF" stroke-width="2.000000"/>
	<path d="M27.9475 32.9475Q25.418 32.9475 23.6484 34.4641Q21.9475 35.9221 21.9475 37.9475C21.9475 38.5076 21.5076 38.9475 20.9475 38.9475C20.3875 38.9475 19.9475 38.5076 19.9475 37.9475Q19.9475 35.0022 22.3469 32.9456Q24.678 30.9475 27.9475 30.9475C28.5076 30.9475 28.9475 31.3875 28.9475 31.9475C28.9475 32.5076 28.5076 32.9475 27.9475 32.9475Z" fill-rule="evenodd" fill="#FFFFFF"/>
	<circle cx="31.947510" cy="34.947510" r="3.500000" stroke="#FFFFFF"/>
	<path d="M34.3 33.644C34.1016 33.4465 33.7903 33.4475 33.593 33.646L31.9441 35.3037L30.2593 33.6426C30.0598 33.4458 29.7488 33.448 29.5522 33.6475C29.3555 33.8469 29.3577 34.158 29.5571 34.3545L31.5964 36.3652Q31.6314 36.3997 31.6724 36.4267Q31.7134 36.4538 31.7589 36.4723Q31.8044 36.4908 31.8526 36.5001Q31.9008 36.5095 31.9499 36.5092Q31.999 36.509 32.0472 36.4992Q32.0953 36.4894 32.1406 36.4705Q32.1859 36.4515 32.2266 36.4241Q32.2674 36.3966 32.302 36.3618L34.302 34.3511L33.9714 34.0225L34.302 34.3511C34.4995 34.1526 34.4985 33.8416 34.3 33.644Z" fill-rule="evenodd" fill="#FFFFFF"/>
	<defs/>
</svg>
