<svg width="63.894531" height="63.895020" viewBox="0 0 63.8945 63.895" fill="none" xmlns="http://www.w3.org/2000/svg" xmlns:xlink="http://www.w3.org/1999/xlink">
	<desc>
			Created with Pixso.
	</desc>
	<circle cx="31.947266" cy="31.947510" r="8.000000" stroke="#FD5E00" stroke-width="2.000000"/>
	<circle cx="30.947266" cy="28.947510" r="1.000000" fill="#FD5E00"/>
	<circle cx="28.947266" cy="32.947510" r="2.000000" fill="#FD5E00"/>
	<path d="M36.3237 25.7192C36.3989 26.2742 36.8936 26.6514 37.4487 26.5764L37.3149 25.5854L37.4487 26.5764Q40.2227 26.2019 40.8174 27.2319Q41.4072 28.2532 39.52 30.6482Q37.3452 33.4087 33.5498 35.6001Q29.7744 37.7798 26.52 38.2229Q23.7358 38.6018 23.1396 37.5688Q22.5156 36.4883 24.3887 34.156C24.7393 33.7192 24.6714 33.1008 24.2349 32.7502C23.7983 32.3994 23.1797 32.467 22.8291 32.9038L23.6045 33.5264L22.8291 32.9038Q20.0991 36.303 21.4077 38.5688Q22.6753 40.7646 26.7896 40.2046Q30.4336 39.7085 34.5498 37.332Q38.6782 34.9485 41.0913 31.886Q43.8164 28.4265 42.5498 26.2319Q41.2842 24.0405 37.1812 24.5945L37.1812 24.5945C36.626 24.6694 36.249 25.1643 36.3237 25.7192Z" fill-rule="evenodd" fill="#FD5E00"/>
	<defs/>
</svg>
