<svg width="67.894531" height="67.895020" viewBox="0 0 67.8945 67.895" fill="none" xmlns="http://www.w3.org/2000/svg" xmlns:xlink="http://www.w3.org/1999/xlink">
	<desc>
			Created with Pixso.
	</desc>
	<circle cx="33.947266" cy="33.947510" r="10.000000" stroke="#FD5E00" stroke-width="2.000000"/>
	<path d="M34.562 34.8416L34.436 35.2476C34.4268 35.6208 34.123 35.8076 33.5259 35.8076C32.9473 35.8076 32.6533 35.6208 32.644 35.2476C32.5972 35.2102 32.6348 35.0234 32.7559 34.6875C32.8774 34.3423 33.0498 34.0527 33.2739 33.8196C33.498 33.5769 33.7266 33.3528 33.96 33.1475C34.1841 32.9329 34.3774 32.7065 34.541 32.4685C34.7041 32.2305 34.7861 31.9856 34.7861 31.7334C34.7861 31.3696 34.6763 31.085 34.457 30.8794C34.2378 30.6741 33.9321 30.5715 33.54 30.5715C32.9238 30.5715 32.4946 30.7302 32.252 31.0476C31.9717 31.2996 31.645 31.2529 31.272 30.9075C30.8984 30.5623 30.8472 30.2634 31.1177 30.0115C31.6968 29.3022 32.5786 28.9475 33.7642 28.9475C34.6411 28.9475 35.3506 29.1716 35.8921 29.6196C36.4424 30.0769 36.7178 30.7256 36.7178 31.5654C36.7178 31.939 36.6294 32.2842 36.4521 32.6016C36.2744 32.9094 36.0693 33.1755 35.8359 33.3994C35.6025 33.6235 35.3647 33.8428 35.1221 34.0576C34.8979 34.2815 34.7114 34.5427 34.562 34.8416ZM34.7441 38.2437C34.7441 38.5984 34.6318 38.8877 34.4077 39.1116C34.1748 39.3264 33.8853 39.4336 33.54 39.4336C33.1948 39.4336 32.9102 39.3264 32.686 39.1116C32.4619 38.8877 32.3501 38.5984 32.3501 38.2437C32.3501 37.8889 32.4619 37.5974 32.686 37.3687C32.9102 37.1399 33.1948 37.0256 33.54 37.0256C33.8945 37.0256 34.1841 37.1377 34.4077 37.3616C34.6318 37.595 34.7441 37.8889 34.7441 38.2437Z" fill="#FD5E00" fill-opacity="1.000000"/>
	<defs/>
</svg>
