<svg width="61.895020" height="61.895020" viewBox="0 0 61.895 61.895" fill="none" xmlns="http://www.w3.org/2000/svg" xmlns:xlink="http://www.w3.org/1999/xlink">
	<desc>
			Created with Pixso.
	</desc>
	<circle cx="33.947510" cy="25.947510" r="2.000000" stroke="#11142D" stroke-width="2.000000"/>
	<circle cx="35.947510" cy="35.947510" r="2.000000" stroke="#11142D" stroke-width="2.000000"/>
	<circle cx="25.947510" cy="31.947510" r="2.000000" stroke="#11142D" stroke-width="2.000000"/>
	<path d="M26.8516 31.1643C27.1877 31.6123 27.8037 31.7002 28.2517 31.3643L32.6316 28.0789C33.0796 27.7429 33.1675 27.127 32.8315 26.679C32.4956 26.231 31.8796 26.1431 31.4316 26.479L27.0515 29.7642C26.6035 30.1003 26.5156 30.7163 26.8516 31.1643Z" fill-rule="evenodd" fill="#11142D"/>
	<path d="M27.3562 32.7646C27.1521 33.2861 27.4011 33.8562 27.9226 34.0605L33.4917 36.2424C34.0132 36.4465 34.5835 36.1975 34.7876 35.676C34.9919 35.1545 34.7427 34.5845 34.2214 34.3801L28.6521 32.1982C28.1306 31.9941 27.5605 32.2432 27.3562 32.7646Z" fill-rule="evenodd" fill="#11142D"/>
	<defs/>
</svg>
