<svg width="42.947266" height="42.947266" viewBox="0 0 42.9473 42.9473" fill="none" xmlns="http://www.w3.org/2000/svg" xmlns:xlink="http://www.w3.org/1999/xlink">
	<desc>
			Created with Pixso.
	</desc>
	<path d="M20.4736 24.4736L20.4736 20.4736Q20.4736 18.4026 21.938 16.938Q23.4026 15.4736 25.4736 15.4736L29.4736 15.4736C30.0337 15.4736 30.4736 15.9136 30.4736 16.4736C30.4736 17.0337 30.0337 17.4736 29.4736 17.4736L25.4736 17.4736Q22.4736 17.4736 22.4736 20.4736L22.4736 24.4736C22.4736 25.0337 22.0337 25.4736 21.4736 25.4736C20.9136 25.4736 20.4736 25.0337 20.4736 24.4736Z" fill-rule="evenodd" fill="#11142D"/>
	<path d="M26.2893 13.0073C25.9321 13.4385 25.9902 14.0581 26.4214 14.4153L27.0598 13.6445L26.4214 14.4153L28.906 16.4736L26.4214 18.532L27.0598 19.3027L26.4214 18.532C25.9902 18.8892 25.9321 19.5088 26.2893 19.9399C26.6465 20.3713 27.2661 20.4294 27.6973 20.072L27.6973 20.072L27.6973 12.8752C27.2661 12.5178 26.6465 12.5759 26.2893 13.0073Z" fill-rule="evenodd" fill="#11142D"/>
	<path d="M21.4736 13.4736Q18.1599 13.4736 15.8169 15.8169Q13.4736 18.1599 13.4736 21.4736Q13.4736 24.7874 15.8169 27.1304Q18.1599 29.4736 21.4736 29.4736Q24.7874 29.4736 27.1304 27.1304Q29.4736 24.7874 29.4736 21.4736C29.4736 20.9136 29.9136 20.4736 30.4736 20.4736C31.0337 20.4736 31.4736 20.9136 31.4736 21.4736Q31.4736 25.6157 28.5447 28.5447Q25.6157 31.4736 21.4736 31.4736Q17.3315 31.4736 14.4026 28.5447Q11.4736 25.6157 11.4736 21.4736Q11.4736 17.3315 14.4026 14.4026Q17.3315 11.4736 21.4736 11.4736C22.0337 11.4736 22.4736 11.9136 22.4736 12.4736C22.4736 13.0337 22.0337 13.4736 21.4736 13.4736Z" fill-rule="evenodd" fill="#11142D"/>
	<defs/>
</svg>
