<svg width="37.776367" height="37.776367" viewBox="0 0 37.7764 37.7764" fill="none" xmlns="http://www.w3.org/2000/svg" xmlns:xlink="http://www.w3.org/1999/xlink">
	<desc>
			Created with Pixso.
	</desc>
	<circle cx="20.950684" cy="14.450684" r="2.062500" stroke="#11142D" stroke-width="2.000000"/>
	<circle cx="23.325684" cy="22.325684" r="2.062500" stroke="#11142D" stroke-width="2.000000"/>
	<circle cx="14.450684" cy="19.575684" r="2.062500" stroke="#11142D" stroke-width="2.000000"/>
	<path d="M15.822 19.2246C16.1582 19.6726 16.7742 19.7605 17.2222 19.4246L20.2334 17.1658C20.6814 16.8298 20.7693 16.2139 20.4333 15.7659C20.0972 15.3179 19.4812 15.23 19.0332 15.5659L16.022 17.8245C15.574 18.1606 15.4861 18.7766 15.822 19.2246Z" fill-rule="evenodd" fill="#11142D"/>
	<path d="M16.1282 20.0234C15.9241 20.5449 16.1731 21.115 16.6946 21.3193L20.5234 22.8193C21.0449 23.0234 21.615 22.7744 21.8193 22.2529C22.0234 21.7314 21.7744 21.1614 21.2529 20.957L17.4241 19.457C16.9026 19.2529 16.3325 19.502 16.1282 20.0234Z" fill-rule="evenodd" fill="#11142D"/>
	<defs/>
</svg>
