<svg width="38.947266" height="41.947266" viewBox="0 0 38.9473 41.9473" fill="none" xmlns="http://www.w3.org/2000/svg" xmlns:xlink="http://www.w3.org/1999/xlink">
	<desc>
			Created with Pixso.
	</desc>
	<path d="M11.4739 13.0728L11.4739 21.5823C11.4683 22.855 11.8145 24.104 12.4736 25.189C14.0999 27.7795 16.5779 29.5417 19.4736 30.4736C22.3694 29.5417 24.8474 27.7795 26.4736 25.189C27.1328 24.104 27.479 22.855 27.4734 21.5823L27.4734 13.0728C27.4734 13.0728 25.1885 11.4736 19.4736 11.4736L19.4736 11.4939C13.7588 11.4736 11.4739 13.0728 11.4739 13.0728Z" stroke="#11142D" stroke-width="2.000000"/>
	<path d="M24.825 17.0107C24.4277 16.6157 23.8057 16.6174 23.4106 17.0146L23.4106 17.0146L19.1025 21.3464L16.2986 18.6611C15.894 18.2739 15.272 18.2874 14.8848 18.6919C14.4973 19.0964 14.5107 19.7185 14.9153 20.1057L15.6069 19.3835L14.9153 20.1057L18.428 23.4695Q18.4983 23.5368 18.5802 23.5893Q18.6621 23.6418 18.7526 23.6775Q18.8432 23.7132 18.9389 23.7308Q19.0346 23.7484 19.1319 23.7472Q19.2292 23.746 19.3244 23.7261Q19.4197 23.7061 19.5093 23.6682Q19.5989 23.6303 19.6796 23.5759Q19.7602 23.5214 19.8289 23.4524L24.8289 18.4248L24.1313 17.7314L24.8289 18.4248C25.2236 18.0278 25.2219 17.4055 24.825 17.0107Z" fill-rule="evenodd" fill="#11142D"/>
	<defs/>
</svg>
