<svg width="61.020020" height="61.020020" viewBox="0 0 61.02 61.02" fill="none" xmlns="http://www.w3.org/2000/svg" xmlns:xlink="http://www.w3.org/1999/xlink">
	<desc>
			Created with Pixso.
	</desc>
	<path d="M38.0725 30.51C38.0725 34.6868 34.6868 38.0725 30.51 38.0725L22.9475 38.0725C22.9475 38.0725 24.5896 35.2974 24.1184 34.554C23.377 33.3843 22.9475 31.9973 22.9475 30.51C22.9475 26.3333 26.3333 22.9475 30.51 22.9475C34.6868 22.9475 38.0725 26.3333 38.0725 30.51ZM36.0725 30.51Q36.0725 28.2061 34.4434 26.5767Q32.814 24.9475 30.51 24.9475Q28.2061 24.9475 26.5767 26.5767Q24.9475 28.2061 24.9475 30.51Q24.9475 32.1265 25.8076 33.4829Q26.4299 34.4646 26.0176 36.0725L30.51 36.0725Q32.814 36.0725 34.4434 34.4434Q36.0725 32.814 36.0725 30.51Z" fill-rule="evenodd" fill="#11142D"/>
	<defs/>
</svg>
