<svg width="67.894531" height="67.895020" viewBox="0 0 67.8945 67.895" fill="none" xmlns="http://www.w3.org/2000/svg" xmlns:xlink="http://www.w3.org/1999/xlink">
	<desc>
			Created with Pixso.
	</desc>
	<path d="M44.9473 33.9475C44.9473 40.0227 40.0225 44.9475 33.9473 44.9475L22.9473 44.9475C22.9473 44.9475 25.3359 40.9109 24.6504 39.8296C23.5718 38.1284 22.9473 36.1108 22.9473 33.9475C22.9473 27.8723 27.8721 22.9475 33.9473 22.9475C40.0225 22.9475 44.9473 27.8723 44.9473 33.9475ZM42.9473 33.9475Q42.9473 30.2195 40.311 27.5835Q37.6753 24.9475 33.9473 24.9475Q30.2192 24.9475 27.5835 27.5835Q24.9473 30.2195 24.9473 33.9475Q24.9473 36.5627 26.3394 38.7585Q27.2412 40.1812 26.1758 42.9475L33.9473 42.9475Q37.6753 42.9475 40.311 40.3115Q42.9473 37.6755 42.9473 33.9475Z" fill-rule="evenodd" fill="#11142D"/>
	<defs/>
</svg>
