<svg width="65.895020" height="65.774658" viewBox="0 0 65.895 65.7747" fill="none" xmlns="http://www.w3.org/2000/svg" xmlns:xlink="http://www.w3.org/1999/xlink">
	<desc>
			Created with Pixso.
	</desc>
	<path d="M40.9475 22.9475L24.9475 22.9475C23.843 22.9475 22.9475 23.843 22.9475 24.9475L22.9475 36.8271C22.9475 37.9316 23.843 38.8271 24.9475 38.8271L28.9475 38.8271L32.9475 42.8271L36.9475 38.8232L40.9463 38.8259C42.0513 38.8259 42.9475 37.9309 42.9475 36.8259L42.9475 24.9475C42.9475 23.843 42.052 22.9475 40.9475 22.9475ZM40.9475 24.9475L24.9475 24.9475L24.9475 36.8271L28.9475 36.8271Q29.1445 36.8271 29.3377 36.8656Q29.5309 36.904 29.7129 36.9794Q29.8949 37.0547 30.0587 37.1642Q30.2225 37.2736 30.3618 37.4128L32.9468 39.998L35.5327 37.4097Q35.6721 37.2701 35.8361 37.1605Q36.0001 37.0509 36.1823 36.9754Q36.3646 36.9 36.558 36.8615Q36.7515 36.8231 36.9487 36.8232L40.9463 36.8259L40.9475 36.8259L40.9475 24.9475Z" fill-rule="evenodd" fill="#11142D"/>
	<rect x="26.947510" y="26.947510" rx="1.000000" width="12.000000" height="2.000000" fill="#11142D"/>
	<rect x="33.947510" y="26.947510" rx="1.000000" width="10.000000" height="2.000000" transform="rotate(90 33.947510 26.947510)" fill="#11142D"/>
	<defs/>
</svg>
