<svg width="54.947266" height="54.947266" viewBox="0 0 54.9473 54.9473" fill="none" xmlns="http://www.w3.org/2000/svg" xmlns:xlink="http://www.w3.org/1999/xlink">
	<desc>
			Created with Pixso.
	</desc>
	<path d="M20.4736 27.4736C19.9136 27.4736 19.4736 27.9136 19.4736 28.4736L19.4736 35.4736L35.4736 35.4736L35.4736 28.4736C35.4736 27.9136 35.0337 27.4736 34.4736 27.4736C33.9136 27.4736 33.4736 27.9136 33.4736 28.4736L33.4736 33.4736L21.4736 33.4736L21.4736 28.4736C21.4736 27.9136 21.0337 27.4736 20.4736 27.4736Z" fill-rule="evenodd" fill="#11142D"/>
	<rect x="26.473633" y="20.473633" rx="1.000000" width="2.000000" height="11.000000" fill="#11142D"/>
	<path d="M32.3877 25.4729C32.7837 25.0769 32.7837 24.4546 32.3877 24.0588L28.145 19.8162Q28.0754 19.7465 27.9935 19.6918Q27.9116 19.637 27.8206 19.5993Q27.7296 19.5616 27.6331 19.5424Q27.5365 19.5232 27.438 19.5232Q27.3395 19.5232 27.2429 19.5424Q27.1463 19.5616 27.0553 19.5993Q26.9644 19.637 26.8825 19.6918Q26.8006 19.7465 26.731 19.8162L22.4883 24.0588C22.0923 24.4546 22.0923 25.0769 22.4883 25.4729C22.8843 25.8689 23.5066 25.8689 23.9023 25.4729L27.438 21.9375L30.9736 25.4729C31.3694 25.8689 31.9917 25.8689 32.3877 25.4729Z" fill-rule="evenodd" fill="#11142D"/>
	<defs/>
</svg>
