<svg width="44.947266" height="44.947266" viewBox="0 0 44.9473 44.9473" fill="none" xmlns="http://www.w3.org/2000/svg" xmlns:xlink="http://www.w3.org/1999/xlink">
	<desc>
			Created with Pixso.
	</desc>
	<path d="M15.4736 22.4736C14.9136 22.4736 14.4736 22.9136 14.4736 23.4736L14.4736 30.4736L30.4736 30.4736L30.4736 23.4736C30.4736 22.9136 30.0337 22.4736 29.4736 22.4736C28.9136 22.4736 28.4736 22.9136 28.4736 23.4736L28.4736 28.4736L16.4736 28.4736L16.4736 23.4736C16.4736 22.9136 16.0337 22.4736 15.4736 22.4736Z" fill-rule="evenodd" fill="#FFFFFF"/>
	<rect x="21.473633" y="15.473633" rx="1.000000" width="2.000000" height="11.000000" fill="#FFFFFF"/>
	<path d="M27.3877 20.4729C27.7837 20.0769 27.7837 19.4546 27.3877 19.0588L23.145 14.8162Q23.0754 14.7465 22.9935 14.6918Q22.9116 14.637 22.8206 14.5993Q22.7296 14.5616 22.6331 14.5424Q22.5365 14.5232 22.438 14.5232Q22.3395 14.5232 22.2429 14.5424Q22.1463 14.5616 22.0553 14.5993Q21.9644 14.637 21.8825 14.6918Q21.8006 14.7465 21.731 14.8162L17.4883 19.0588C17.0923 19.4546 17.0923 20.0769 17.4883 20.4729C17.8843 20.8689 18.5066 20.8689 18.9023 20.4729L22.438 16.9375L25.9736 20.4729C26.3694 20.8689 26.9917 20.8689 27.3877 20.4729Z" fill-rule="evenodd" fill="#FFFFFF"/>
	<defs/>
</svg>
