<svg width="57.895020" height="65.895020" viewBox="0 0 57.895 65.895" fill="none" xmlns="http://www.w3.org/2000/svg" xmlns:xlink="http://www.w3.org/1999/xlink">
	<desc>
			Created with Pixso.
	</desc>
	<path d="M24.9475 27.9475L28.9475 27.9475L28.9475 37.9475L24.9475 37.9475C23.843 37.9475 22.9475 37.052 22.9475 35.9475L22.9475 29.9475C22.9475 28.843 23.843 27.9475 24.9475 27.9475Z" fill-rule="evenodd" fill="#11142D"/>
	<path d="M33.4175 23.9038L26.9475 27.9475L26.9475 37.9475L33.4175 41.9912C34.0835 42.4075 34.9475 41.9287 34.9475 41.1433L34.9475 24.7517C34.9475 23.9663 34.0835 23.4875 33.4175 23.9038ZM28.9475 29.0559L32.9475 26.5559L32.9475 39.3391L28.9475 36.8391L28.9475 29.0559Z" fill-rule="evenodd" fill="#11142D"/>
	<path d="M35.7415 28.936C35.4578 29.4189 35.6143 30.0212 36.0972 30.3049Q36.1277 30.3228 36.1575 30.3413Q37.5806 31.2229 37.5806 32.894Q37.5806 34.6223 36.0837 35.4912L36.5857 36.356L36.0837 35.4912C35.5994 35.7722 35.4397 36.3738 35.7209 36.8579C36.002 37.3423 36.6033 37.502 37.0876 37.2209L37.0876 37.2209Q39.5806 35.7739 39.5806 32.894Q39.5806 30.1091 37.2107 28.6411Q37.1609 28.6101 37.1101 28.5803C36.6272 28.2966 36.0251 28.4534 35.7415 28.936Z" fill-rule="evenodd" fill="#11142D"/>
	<path d="M37.6436 26.4336C37.3599 26.9165 37.5164 27.5188 37.9993 27.8025Q38.0596 27.8379 38.1189 27.8745Q40.9373 29.6206 40.9373 32.9312Q40.9373 36.3545 37.9727 38.0754L38.4746 38.9402L37.9727 38.0754C37.4883 38.3564 37.3286 38.9578 37.6099 39.4421C37.8909 39.9265 38.4922 40.0862 38.9766 39.8049Q42.9373 37.5061 42.9373 32.9312Q42.9373 28.5068 39.1721 26.1743Q39.0928 26.1252 39.0122 26.0779C38.5295 25.7942 37.9272 25.9509 37.6436 26.4336Z" fill-rule="evenodd" fill="#11142D"/>
	<defs/>
</svg>
