<svg width="77.894897" height="75.895020" viewBox="0 0 77.8949 75.895" fill="none" xmlns="http://www.w3.org/2000/svg" xmlns:xlink="http://www.w3.org/1999/xlink">
	<desc>
			Created with Pixso.
	</desc>
	<path d="M23.0125 26.5652C22.9644 26.3596 22.9474 25.9475 22.9474 25.9475L22.9474 48.9475C22.9474 51.1567 24.7383 52.9475 26.9474 52.9475L50.9474 52.9475C53.1566 52.9475 54.9474 51.1567 54.9474 48.9475L54.9474 30.9475C54.9474 28.7383 53.1566 26.9475 50.9474 26.9475L26.0395 26.9475L23.1246 26.9475C23.1246 26.9475 23.0604 26.7708 23.0125 26.5652ZM24.9474 48.9475L24.9474 28.9475L26.0395 28.9475L50.9474 28.9475Q51.7759 28.9475 52.3616 29.5332Q52.9474 30.1191 52.9474 30.9475L52.9474 48.9475Q52.9474 49.7759 52.3616 50.3618Q51.7759 50.9475 50.9474 50.9475L26.9474 50.9475Q26.119 50.9475 25.5333 50.3618Q24.9474 49.7759 24.9474 48.9475Z" fill-rule="evenodd" fill="#11142D"/>
	<path d="M54.9474 34.9475L54.9474 44.9475L42.9474 44.9475C41.8429 44.9475 40.9474 44.052 40.9474 42.9475L40.9474 36.9475C40.9474 35.843 41.8429 34.9475 42.9474 34.9475L54.9474 34.9475ZM52.9474 36.9475L52.9474 42.9475L42.9474 42.9475L42.9474 36.9475L52.9474 36.9475Z" fill-rule="evenodd" fill="#11142D"/>
	<path d="M40.9474 22.9475C43.1566 22.9475 44.9474 24.7383 44.9474 26.9475L44.9474 28.9475L25.9474 28.9475C24.2906 28.9475 22.9474 27.6042 22.9474 25.9475C22.9474 24.2908 24.2906 22.9475 25.9474 22.9475L40.9474 22.9475ZM40.9474 24.9475C42.052 24.9475 42.9474 25.843 42.9474 26.9475L25.9474 26.9475C25.3951 26.9475 24.9474 26.4998 24.9474 25.9475C24.9474 25.3953 25.3951 24.9475 25.9474 24.9475L40.9474 24.9475Z" fill-rule="evenodd" fill="#11142D"/>
	<defs/>
</svg>
