<svg width="189.473724" height="98.947449" viewBox="0 0 189.474 98.9474" fill="none" xmlns="http://www.w3.org/2000/svg" xmlns:xlink="http://www.w3.org/1999/xlink">
	<desc>
			Created with Pixso.
	</desc>
	<path d="M69.2887 45.4933C66.1429 45.4893 63.2404 47.1906 61.699 49.9421L61.5686 50.1602C61.5251 50.2474 61.4904 50.3172 61.4469 50.3869C61.4232 50.4532 61.3941 50.5174 61.36 50.5789C61.3651 50.5989 61.3651 50.6199 61.36 50.64L61.3078 50.7359C61.2454 50.8619 61.1757 50.9843 61.0992 51.1022C61.0751 51.1545 61.046 51.2042 61.0122 51.2505C60.9253 51.3901 60.8297 51.5297 60.7253 51.6693C63.1645 56.4411 61.2864 62.2934 56.5306 64.7407C51.7748 67.188 45.9422 65.3036 43.5031 60.5318C46.1503 67.369 52.7108 71.8729 60.0211 71.8718C70.9839 71.8718 77.7303 63.9163 77.7303 54.103C77.722 53.3603 77.6552 52.6194 77.5303 51.8873C76.5009 48.1575 73.1453 45.5543 69.2887 45.4933Z" fill="url(#paint_linear_2_5_0)"/>
	<path d="M36.6524 60.8721C36.6638 51.0068 42.6725 42.1467 51.8143 38.5151C52.2577 38.2795 52.6837 38.0527 53.1618 37.8521L53.3965 37.7038C53.6487 37.538 53.8921 37.3636 54.1355 37.1804L54.4832 36.9188C54.718 36.7355 54.944 36.5349 55.1701 36.3343L55.4483 36.0813C55.7612 35.7847 56.0568 35.4882 56.3176 35.209L56.3176 35.209C56.6045 34.8862 56.8654 34.5547 57.1175 34.2233L57.3435 33.9006C57.5174 33.6563 57.6826 33.412 57.8391 33.1504L58.0651 32.7753C58.2216 32.5136 58.3607 32.2519 58.4911 31.9815L58.6736 31.6238C58.8562 31.2401 59.0214 30.8475 59.1692 30.4375C61.9669 22.8474 58.1832 14.4082 50.6667 11.4737C48.8307 20.093 43.2413 27.433 35.4353 31.4755L35.4353 31.4755C35.0093 31.6849 34.5659 31.9117 34.1834 32.1472L33.9226 32.2868C33.5227 32.5223 33.1141 32.7665 32.7229 33.0195C19.7265 41.3057 15.2938 58.2433 22.5561 71.8671C29.8184 85.491 46.3201 91.194 60.4037 84.9476C47.2469 84.8137 36.6517 74.0738 36.6524 60.8721Z" fill="url(#paint_linear_2_6_0)"/>
	<path d="M36.6524 60.8721C36.6662 51.0075 42.674 42.1486 51.8143 38.5151C52.2576 38.2795 52.6836 38.0527 53.1705 37.8521L53.4052 37.7038C53.6573 37.538 53.9008 37.3636 54.1442 37.1804L54.4832 36.9188C54.718 36.7355 54.944 36.5349 55.17 36.3343L55.4569 36.0813C55.7612 35.7847 56.0568 35.4882 56.3263 35.209L56.3263 35.209C56.6045 34.8862 56.8653 34.5547 57.1261 34.2233L57.3522 33.9006C57.526 33.6563 57.6912 33.412 57.8477 33.1504L58.0738 32.7753C58.2215 32.5136 58.3606 32.2519 58.4998 31.9815C58.5519 31.8681 58.6215 31.746 58.6736 31.6238C58.8562 31.2401 59.0301 30.8475 59.1779 30.4375C61.9756 22.8474 58.1919 14.4082 50.6754 11.4737C63.2117 18.4521 59.6734 33.1678 49.3539 38.0789C43.3727 40.9225 41.4426 43.461 39.5387 46.1826C36.1047 51.0936 36.6524 60.8721 36.6524 60.8721Z" fill="url(#paint_linear_2_7_0)"/>
	<path d="M77.9737 57.9151C77.9738 56.5139 77.8721 55.1144 77.6695 53.728C77.6695 53.9286 77.6695 54.1205 77.6695 54.3211C77.6695 54.7225 76.8001 71.7236 60.0386 71.7236C51.9844 71.6922 44.9807 66.1755 43.0384 58.3327C41.0961 50.4898 44.7116 42.3254 51.8143 38.5151C41.1481 42.7529 34.9636 53.9732 37.056 65.2908C39.1484 76.6083 48.9323 84.8565 60.4037 84.9738C71.0915 80.2499 77.9852 69.6331 77.9737 57.9151Z" fill="url(#paint_linear_2_8_0)"/>
	<path d="M75.835 46.5577C76.3268 47.7413 76.7393 48.9565 77.0695 50.1953C77.213 50.7178 77.317 51.247 77.4558 51.7657C76.4983 48.5203 73.7104 46.1419 70.347 45.7275C66.9028 45.3032 63.5477 47.0237 61.8729 50.0731C61.8254 50.1386 61.7846 50.2087 61.7512 50.2824L61.6295 50.5092C61.6041 50.572 61.575 50.6331 61.5425 50.6924L61.5425 50.7535L61.4904 50.8408C61.4295 50.9628 61.36 51.0849 61.2904 51.2071C61.2646 51.2556 61.2356 51.3022 61.2035 51.3466C61.1072 51.5032 61.0027 51.6547 60.8905 51.8002C59.3978 53.7278 56.8507 54.4931 54.5478 53.7057C52.2449 52.9185 50.6934 50.7521 50.6841 48.311C50.682 47.6004 50.8148 46.8958 51.0753 46.2349C51.7589 42.8847 53.885 40.0097 56.8826 38.3821C59.8802 36.7546 63.4418 36.5414 66.611 37.7999L67.1239 38.0179C67.3847 38.1313 67.6368 38.2621 67.889 38.393C71.375 40.1439 74.1735 43.0193 75.835 46.5577ZM77.4558 51.7657C77.4769 51.8443 77.4987 51.9228 77.5216 52.0009C77.5008 51.9221 77.4788 51.8436 77.4558 51.7657ZM62.0642 48.8692L62.0642 48.9826C62.0728 48.9826 62.0642 48.8343 62.0642 48.8692Z" fill="url(#paint_linear_2_11_0)" fill-opacity="1.000000"/>
	<path d="M75.8351 46.5576C76.3269 47.7411 76.7393 48.9564 77.0696 50.1951C77.2348 50.7969 77.3478 51.4075 77.4782 52.0269C76.1447 47.8903 73.528 44.2897 70.0103 41.7512L69.9989 41.7436C68.8999 41.0054 64.2531 37.8842 58.7084 39.6227C54.5128 40.9266 51.8264 45.1066 51.2006 46.0803C51.0769 46.2728 51.0338 46.3399 51.0753 46.2348C51.7589 42.8846 53.8851 40.0096 56.8826 38.382C59.8802 36.7545 63.4419 36.5413 66.6111 37.7997L67.124 38.0178C67.3848 38.1312 67.6369 38.262 67.889 38.3929C71.375 40.1437 74.1735 43.0192 75.8351 46.5576ZM62.0642 48.8692L62.0642 48.9826C62.0729 48.9826 62.0642 48.8343 62.0642 48.8692Z" fill="url(#paint_linear_2_14_0)" fill-opacity="1.000000"/>
	<path d="M107.788 57.014L107.788 53.3532L107.7 50.8215L107.613 50.2912C107.578 50.0859 107.474 49.8807 107.474 49.6754C107.62 49.08 107.843 48.5053 108.136 47.9647C108.706 46.8874 109.577 45.9915 110.646 45.3817C111.789 44.7664 113.074 44.4539 114.377 44.4749C115.674 44.4514 116.955 44.7641 118.09 45.3817C119.157 45.9896 120.022 46.8864 120.583 47.9647C121.191 49.1464 121.496 50.4559 121.472 51.7795L121.472 57.1166C121.5 58.4407 121.195 59.751 120.583 60.9315C120.031 62.0286 119.164 62.9442 118.09 63.5659C116.955 64.1834 115.674 64.4962 114.377 64.4725C113.074 64.4935 111.789 64.181 110.646 63.5659C109.577 62.9559 108.706 62.06 108.136 60.9827C107.856 60.4401 107.645 59.8655 107.509 59.272C107.693 58.533 107.787 57.775 107.788 57.014ZM112.477 48.3068C111.937 48.6194 111.506 49.0844 111.239 49.6411C110.921 50.2791 110.765 50.9837 110.786 51.6939L110.786 57.2021C110.763 57.9125 110.919 58.6176 111.239 59.2549C111.501 59.8146 111.934 60.2808 112.477 60.5892C113.053 60.9189 113.711 61.0847 114.377 61.0682C115.038 61.087 115.691 60.921 116.26 60.5892C116.804 60.2767 117.241 59.8122 117.515 59.2549C117.828 58.6149 117.983 57.9118 117.968 57.2021L117.968 51.6939C117.981 50.9844 117.826 50.2817 117.515 49.6411C117.241 49.0838 116.804 48.6193 116.26 48.3068C115.687 47.985 115.037 47.8196 114.377 47.8278C113.711 47.819 113.056 47.9844 112.477 48.3068Z" fill="#1C1C1C" fill-opacity="1.000000"/>
	<path d="M141.47 57.1942C141.51 58.5568 141.2 59.9067 140.573 61.1125C139.979 62.2044 139.061 63.0795 137.95 63.614C136.668 64.2115 135.269 64.5046 133.859 64.4711L127.474 64.4711L127.474 60.0805C127.779 59.15 127.93 58.1747 127.922 57.1942L127.922 51.7365C127.936 50.7569 127.79 49.7818 127.491 48.8503L127.491 44.4771L133.877 44.4771C135.28 44.4389 136.673 44.7261 137.95 45.3167C139.062 45.8577 139.98 46.7387 140.573 47.8356C141.2 49.0352 141.51 50.3793 141.47 51.7365L141.47 57.1942ZM136.949 48.8852C136.121 48.1668 135.05 47.8029 133.963 47.8707L130.908 47.8707L130.908 61.1301L133.963 61.1301C135.048 61.2045 136.12 60.8467 136.949 60.133C137.683 59.3852 138.061 58.3513 137.984 57.2991L137.984 51.7016C138.058 50.6551 137.68 49.6276 136.949 48.8852Z" fill="#1C1C1C" fill-opacity="1.000000"/>
	<path d="M101.473 53.3755L96.5102 53.3755C95.1229 53.8697 94.188 55.1758 94.1658 56.6513L98.016 56.6513L98.016 57.0972C98.035 57.8533 97.8829 58.6038 97.5711 59.2925C97.3199 59.8664 96.8948 60.3465 96.3562 60.6646C95.7932 60.9836 95.1545 61.1436 94.5081 61.1277C93.8473 61.1442 93.1934 60.9907 92.6086 60.6818C92.0762 60.3919 91.6414 59.9503 91.3595 59.4127C91.0487 58.8084 90.89 58.1371 90.8974 57.4575L90.8974 51.9006C90.8822 51.1503 91.0342 50.4062 91.3423 49.7225C91.6244 49.1437 92.0632 48.6564 92.6086 48.3161C93.1649 47.9775 93.8061 47.805 94.4567 47.8187C94.9377 47.8179 95.4123 47.9295 95.8428 48.1446C96.2998 48.362 96.7031 48.6783 97.0235 49.0707C97.3672 49.5041 97.6125 50.0075 97.7422 50.5456L97.7422 50.8372L101.404 50.8372L101.302 50.3913C101.104 49.2724 100.66 48.2119 100.001 47.287C99.3704 46.415 98.5439 45.704 97.5882 45.2117C96.6107 44.7224 95.5323 44.4698 94.4396 44.4743C93.1594 44.4584 91.8971 44.7776 90.7776 45.4005C89.7311 46.0259 88.8827 46.9357 88.3307 48.0245C87.7469 49.2316 87.4538 50.5593 87.475 51.9006L87.475 57.4575C87.4512 58.7352 87.7515 59.9981 88.3477 61.1277C88.937 62.1843 89.8238 63.0433 90.8974 63.5975C92.0299 64.1972 93.296 64.4982 94.5765 64.4721C95.8577 64.4962 97.122 64.1763 98.2385 63.546C99.2598 62.9105 100.084 62.0016 100.617 60.9219C101.201 59.7148 101.494 58.3871 101.473 57.0458L101.473 53.3755Z" fill="#1C1C1C"/>
	<path d="M179.367 56.3723L185.659 56.3723C187.253 55.8681 188.327 54.5355 188.353 53.0301L179.367 53.0301L179.367 47.7808L186.78 47.7808C188.383 47.3074 189.467 45.9764 189.474 44.4737L175.474 44.4737L175.474 48.7431C175.859 49.7037 176.059 50.7154 176.064 51.7353L176.064 57.1946C176.069 58.2181 175.883 59.2353 175.513 60.2043L175.513 64.4737L179.446 64.4737L179.367 56.3723Z" fill="#1C1C1C"/>
	<path d="M166.111 63.5634C164.994 64.1826 163.734 64.4962 162.457 64.4725C161.18 64.4962 159.92 64.1826 158.803 63.5634C157.752 62.9505 156.895 62.0527 156.333 60.9737C155.744 59.7861 155.45 58.4743 155.475 57.1492L155.475 51.7982C155.454 50.4734 155.748 49.1627 156.333 47.9736C156.9 46.8924 157.763 45.9943 158.82 45.3839C159.937 44.7647 161.198 44.4512 162.474 44.4749C163.751 44.4512 165.012 44.7647 166.128 45.3839C167.184 45.9908 168.042 46.8902 168.599 47.9736C168.748 48.2629 168.879 48.5607 168.993 48.8654C169.318 49.8089 169.48 50.8005 169.474 51.7982L169.474 57.1492C169.479 58.1523 169.316 59.1494 168.993 60.0991C168.873 60.3906 168.753 60.6822 168.599 60.9737C168.038 62.0595 167.174 62.9592 166.111 63.5634ZM160.604 48.3166C160.073 48.6301 159.649 49.0963 159.386 49.6544C159.073 50.294 158.92 51.0004 158.94 51.7125L158.94 57.2349C158.918 57.9472 159.071 58.654 159.386 59.293C159.644 59.8542 160.07 60.3216 160.604 60.6307C161.168 60.9533 161.808 61.1191 162.457 61.1109C163.112 61.1197 163.757 60.9539 164.327 60.6307C164.854 60.3117 165.277 59.8471 165.545 59.293C165.861 58.654 166.014 57.9472 165.991 57.2349L165.991 51.7125C166.012 51.0004 165.859 50.294 165.545 49.6544C165.283 49.0963 164.858 48.6301 164.327 48.3166C163.757 47.9935 163.112 47.8277 162.457 47.8364C161.808 47.8282 161.168 47.9941 160.604 48.3166Z" fill="#1C1C1C" fill-opacity="1.000000"/>
	<path d="M141.546 72.8166C142.033 71.6699 143.184 70.9461 144.431 71.0016C144.909 70.997 145.381 71.1087 145.806 71.327C146.271 71.5338 146.678 71.8513 146.991 72.2515C147.333 72.6473 147.58 73.1158 147.712 73.6213L147.815 73.9809L151.457 73.9809L151.336 73.3987C151.169 72.2901 150.759 71.2319 150.134 70.2996C149.482 69.4095 148.621 68.6923 147.626 68.2106C146.64 67.7202 145.551 67.4678 144.449 67.4744C143.166 67.4562 141.903 67.7814 140.79 68.4162C139.735 69.043 138.883 69.9581 138.334 71.0529C137.747 72.2516 137.452 73.5717 137.475 74.9055L137.475 80.0422C137.452 81.3759 137.747 82.696 138.334 83.8947C138.884 84.9942 139.744 85.9103 140.807 86.5316C142.927 87.7175 145.496 87.7879 147.678 86.7199C148.651 86.2198 149.492 85.4984 150.134 84.6138C150.788 83.6867 151.234 82.6295 151.439 81.5147L151.474 80.8641L147.815 80.8641L147.729 81.2408C147.49 82.2551 146.801 83.1058 145.857 83.5522C145.413 83.7473 144.933 83.8465 144.449 83.8433C143.844 83.8544 143.248 83.6942 142.731 83.381C142.221 83.0826 141.809 82.6423 141.546 82.114C141.245 81.4592 141.099 80.7448 141.116 80.0251L141.116 74.8884C141.099 74.1741 141.246 73.4655 141.546 72.8166L141.546 72.8166Z" fill="#1C1C1C"/>
	<path d="M158.701 87.4388L157.474 87.4388L164.552 67.4737L167.41 67.4737L174.471 87.4737L173.294 87.4737C171.728 87.4468 170.345 86.4075 169.831 84.871L169.31 83.3165L162.585 83.3165L162.063 84.871L162.063 84.9759C162.07 85.0515 162.07 85.1274 162.063 85.2029C161.446 86.5549 160.141 87.4228 158.701 87.4388ZM168.15 79.7009L165.981 73.0982L163.795 79.7009L168.15 79.7009Z" fill="#1C1C1C" fill-opacity="1.000000"/>
	<path d="M103.474 67.4737L100.372 67.4737L95.4737 79.2951L90.5594 67.4737L87.4737 67.4737L87.4737 83.3757L87.4737 83.3757L87.4737 84.8992C87.9639 86.397 89.2601 87.419 90.739 87.4737L90.739 87.4737L90.739 76.4754L94.2982 84.8467L96.6329 84.8467L100.11 76.2653L100.11 84.3214L100.11 84.3214L100.11 87.4562C101.59 87.3891 102.883 86.3627 103.376 84.8642L103.376 82.2723L103.376 82.2723L103.474 67.4737Z" fill="#1C1C1C"/>
	<path d="M130.713 78.3475C130.18 77.5899 129.457 76.992 128.619 76.6163C127.682 76.2429 126.713 75.9589 125.724 75.768L125.571 75.768L125.247 75.768C124.512 75.6293 123.784 75.4501 123.068 75.2314C122.63 75.0967 122.232 74.8527 121.91 74.5215C121.626 74.2003 121.485 73.7747 121.518 73.3443C121.494 72.6617 121.807 72.012 122.353 71.6131C123.154 71.1135 124.088 70.8776 125.026 70.9379L130.764 70.9379L130.764 67.4755L125.298 67.4755C123.928 67.4503 122.565 67.6851 121.28 68.168C120.267 68.5876 119.406 69.3126 118.811 70.2454C118.239 71.2297 117.95 72.3572 117.977 73.5002C117.889 74.7267 118.213 75.9474 118.896 76.9626C119.477 77.6264 120.225 78.117 121.059 78.3821C122.086 78.7256 123.139 78.9804 124.209 79.1439L124.464 79.1439L124.464 79.1439L124.464 79.1439C125.138 79.2613 125.803 79.4233 126.456 79.6286C126.877 79.7665 127.254 80.0178 127.546 80.3557C127.826 80.7057 127.96 81.1529 127.921 81.6021C127.946 82.2975 127.61 82.9554 127.035 83.3333C126.167 83.8382 125.173 84.0731 124.175 84.0085L118.045 84.0085C117.61 85.4316 116.701 86.6561 115.474 87.471L115.474 87.471L124.175 87.471C125.494 87.5018 126.806 87.2725 128.04 86.7958C129.065 86.3843 129.948 85.6735 130.577 84.753C131.183 83.7814 131.491 82.6485 131.462 81.4984C131.533 80.395 131.272 79.2958 130.713 78.3475Z" fill="#1C1C1C"/>
	<path d="M117.653 83.9788C118.226 82.7289 118.506 81.3608 118.471 79.9824L118.471 76.6606C117.808 75.6817 117.484 74.5073 117.55 73.3215C117.521 72.1767 117.817 71.0477 118.403 70.0688C118.398 70.0344 118.398 69.9995 118.403 69.965L118.403 67.4737C116.795 67.4914 115.371 68.5289 114.84 70.0688L114.84 71.1069L114.84 71.1069L114.84 80.0861C114.91 81.1119 114.593 82.1263 113.954 82.9235C113.286 83.6061 112.359 83.9599 111.414 83.8924C110.473 83.9643 109.55 83.6094 108.891 82.9235C108.246 82.1288 107.923 81.1142 107.988 80.0861L107.988 72.6813L107.988 72.6813L107.988 70.0688C107.464 68.5464 106.065 67.5129 104.477 67.4737L104.477 67.4737L104.477 67.4737L104.477 79.9824C104.441 81.3608 104.721 82.7289 105.295 83.9788C105.814 85.0901 106.667 86.0051 107.732 86.5914C110.098 87.7678 112.867 87.7678 115.232 86.5914C116.293 86.0051 117.141 85.0895 117.653 83.9788L117.653 83.9788Z" fill="#1C1C1C"/>
	<path d="M186.137 67.4737L186.137 67.9857L186.137 67.9857L186.137 80.6307L179.625 69.9481C179.564 69.8281 179.493 69.7139 179.413 69.6068L179.413 69.6068L179.413 69.6068C178.755 68.6066 177.675 68.0025 176.516 67.9857L175.474 67.9857L175.474 87.4737L175.474 87.4737C176.999 87.4517 178.349 86.4374 178.86 84.931L178.86 82.3713L178.86 82.3713L178.86 74.9993L185.209 85.3918C185.785 86.577 186.906 87.3647 188.171 87.4737L189.474 87.4737L189.474 72.5932L189.474 72.5932L189.474 70.0163C188.97 68.5272 187.643 67.5168 186.137 67.4737Z" fill="#1C1C1C"/>
	<path d="M156.474 71.4598L156.474 71.4598L156.474 70.0733C155.878 68.5248 154.277 67.4842 152.474 67.4737L152.474 75.3073L152.474 75.3073L152.474 82.2397L152.474 82.2397L152.474 84.8568C153.075 86.3967 154.659 87.4383 156.455 87.4737L156.455 84.6314L156.455 84.6314L156.474 71.4598Z" fill="#1C1C1C"/>
	<path d="M136.474 70.0847C135.873 68.5385 134.277 67.4965 132.474 67.4737L132.474 75.3414L132.474 75.3414L132.474 78.5964C133.072 79.5226 133.365 80.5864 133.316 81.66C133.345 82.726 133.054 83.7792 132.474 84.7061L132.474 84.8453C133.073 86.3951 134.668 87.4432 136.474 87.4737L136.474 84.7061L136.474 84.7061L136.474 71.4772L136.474 71.4772L136.474 70.0847Z" fill="#1C1C1C"/>
	<defs>
		<linearGradient id="paint_linear_2_5_0" x1="44.242020" y1="78.562271" x2="70.392754" y2="50.561409" gradientUnits="userSpaceOnUse">
			<stop offset="0.310000" stop-color="#F4A421"/>
			<stop offset="0.670000" stop-color="#E9441A"/>
			<stop offset="1.000000" stop-color="#BC131B"/>
		</linearGradient>
		<linearGradient id="paint_linear_2_6_0" x1="72.148926" y1="6.178818" x2="33.279266" y2="80.080139" gradientUnits="userSpaceOnUse">
			<stop offset="0.030000" stop-color="#F4A421"/>
			<stop offset="0.500000" stop-color="#E9441A"/>
			<stop offset="1.000000" stop-color="#BC131B"/>
		</linearGradient>
		<linearGradient id="paint_linear_2_7_0" x1="60.195011" y1="7.722795" x2="41.286156" y2="55.158516" gradientUnits="userSpaceOnUse">
			<stop offset="0.190000" stop-color="#F4A421"/>
			<stop offset="0.500000" stop-color="#E9441A"/>
			<stop offset="1.000000" stop-color="#BC131B"/>
		</linearGradient>
		<linearGradient id="paint_linear_2_8_0" x1="78.738785" y1="75.439568" x2="29.636597" y2="49.043747" gradientUnits="userSpaceOnUse">
			<stop offset="0.100000" stop-color="#F4A421"/>
			<stop offset="0.500000" stop-color="#E9441A"/>
			<stop offset="1.000000" stop-color="#BC131B"/>
		</linearGradient>
		<linearGradient id="paint_linear_2_11_0" x1="34.305099" y1="41.132019" x2="13.257587" y2="49.636940" gradientUnits="userSpaceOnUse">
			<stop offset="0.100000" stop-color="#F4A421"/>
			<stop offset="0.500000" stop-color="#E9441A"/>
			<stop offset="1.000000" stop-color="#BC131B"/>
		</linearGradient>
		<linearGradient id="paint_linear_2_14_0" x1="29.054136" y1="40.128754" x2="18.482555" y2="50.735897" gradientUnits="userSpaceOnUse">
			<stop offset="0.100000" stop-color="#F4A421"/>
			<stop offset="0.500000" stop-color="#E9441A"/>
			<stop offset="1.000000" stop-color="#BC131B"/>
		</linearGradient>
	</defs>
</svg>
